<svg width="866" height="659" viewBox="0 0 866 659" fill="none" xmlns="http://www.w3.org/2000/svg">
<g clip-path="url(#clip0_102_3)">
<path d="M307.917 153.234C307.558 153.234 307.212 153.098 306.95 152.852C306.687 152.607 306.527 152.272 306.502 151.913C305.573 139.292 299.912 127.486 290.652 118.86C281.393 110.233 269.217 105.421 256.561 105.387C255.046 105.387 253.455 105.464 251.832 105.616C251.56 105.641 251.287 105.588 251.045 105.463C250.803 105.337 250.602 105.144 250.467 104.908C244.653 94.7321 235.972 86.494 225.506 81.2213C215.04 75.9486 203.253 73.8749 191.616 75.259C179.979 76.643 169.008 81.4235 160.07 89.0038C151.133 96.5842 144.626 106.629 141.362 117.884C141.276 118.185 141.092 118.45 140.839 118.635C140.586 118.821 140.278 118.917 139.965 118.909L139.587 118.897C139.39 118.891 139.194 118.884 138.996 118.884C129.397 118.914 120.097 122.225 112.638 128.268C105.18 134.311 100.012 142.723 97.9918 152.107C97.9245 152.426 97.7497 152.712 97.4966 152.917C97.2435 153.123 96.9275 153.235 96.6016 153.235H1.42087C1.04472 153.234 0.684325 153.083 0.418701 152.817C0.153077 152.551 0.00390625 152.19 0.00390625 151.814C0.00390625 151.438 0.153077 151.077 0.418701 150.811C0.684325 150.544 1.04472 150.394 1.42087 150.393H95.4646C97.8321 140.632 103.401 131.946 111.282 125.719C119.163 119.493 128.903 116.086 138.947 116.043C142.523 104.476 149.38 94.1977 158.687 86.455C167.993 78.7122 179.348 73.8388 191.371 72.4267C203.395 71.0146 215.57 73.1246 226.417 78.5004C237.264 83.8762 246.316 92.2864 252.474 102.709C253.872 102.6 255.243 102.546 256.561 102.546C269.935 102.582 282.802 107.667 292.588 116.784C302.373 125.901 308.355 138.376 309.336 151.714C309.349 151.9 309.326 152.087 309.266 152.264C309.207 152.441 309.114 152.605 308.992 152.746C308.869 152.887 308.72 153.002 308.553 153.085C308.386 153.168 308.205 153.218 308.018 153.231C307.985 153.233 307.951 153.234 307.917 153.234Z" fill="white"/>
<path d="M291.013 171.451H58.0145C57.6377 171.451 57.2763 171.301 57.0099 171.034C56.7434 170.768 56.5938 170.407 56.5938 170.03C56.5938 169.653 56.7434 169.292 57.0099 169.025C57.2763 168.759 57.6377 168.609 58.0145 168.609H291.013C291.39 168.609 291.751 168.759 292.018 169.025C292.284 169.292 292.434 169.653 292.434 170.03C292.434 170.407 292.284 170.768 292.018 171.034C291.751 171.301 291.39 171.451 291.013 171.451Z" fill="white"/>
<path d="M114.844 192.051H36.7038C36.5169 192.052 36.3318 192.015 36.159 191.944C35.9861 191.873 35.8291 191.768 35.6967 191.636C35.5644 191.504 35.4594 191.348 35.3878 191.175C35.3162 191.002 35.2793 190.817 35.2793 190.63C35.2793 190.444 35.3162 190.259 35.3878 190.086C35.4594 189.913 35.5644 189.756 35.6967 189.625C35.8291 189.493 35.9861 189.388 36.159 189.317C36.3318 189.246 36.5169 189.209 36.7038 189.21H114.844C115.22 189.211 115.58 189.361 115.846 189.627C116.111 189.894 116.261 190.254 116.261 190.63C116.261 191.007 116.111 191.367 115.846 191.634C115.58 191.9 115.22 192.05 114.844 192.051Z" fill="white"/>
<path d="M644.862 374.228C645.119 374.228 645.367 374.13 645.555 373.954C645.744 373.778 645.859 373.538 645.877 373.281C646.542 364.234 650.6 355.772 657.237 349.588C663.874 343.405 672.602 339.956 681.673 339.931C682.759 339.931 683.899 339.987 685.063 340.096C685.258 340.114 685.454 340.076 685.627 339.986C685.801 339.896 685.945 339.757 686.042 339.588C690.209 332.294 696.431 326.389 703.933 322.61C711.435 318.83 719.884 317.344 728.225 318.336C736.566 319.328 744.431 322.755 750.837 328.188C757.243 333.622 761.907 340.821 764.247 348.889C764.309 349.105 764.44 349.295 764.622 349.428C764.803 349.561 765.023 349.63 765.248 349.624L765.519 349.616C765.66 349.611 765.801 349.606 765.943 349.606C772.823 349.627 779.489 352.001 784.835 356.332C790.182 360.664 793.886 366.693 795.334 373.42C795.382 373.648 795.507 373.853 795.689 374C795.87 374.148 796.097 374.228 796.33 374.228H864.555C864.689 374.228 864.822 374.202 864.945 374.151C865.069 374.1 865.182 374.025 865.277 373.931C865.372 373.836 865.447 373.724 865.498 373.6C865.55 373.476 865.576 373.344 865.576 373.21C865.576 373.076 865.55 372.943 865.498 372.819C865.447 372.695 865.372 372.583 865.277 372.488C865.182 372.394 865.069 372.319 864.945 372.268C864.822 372.217 864.689 372.191 864.555 372.191H797.145C795.448 365.195 791.457 358.968 785.808 354.505C780.158 350.043 773.177 347.601 765.978 347.569C763.415 339.279 758.499 331.911 751.829 326.361C745.158 320.811 737.019 317.318 728.401 316.306C719.782 315.294 711.056 316.806 703.281 320.659C695.505 324.513 689.017 330.541 684.603 338.012C683.601 337.934 682.618 337.895 681.673 337.895C672.087 337.921 662.864 341.566 655.85 348.1C648.836 354.635 644.548 363.578 643.845 373.138C643.835 373.272 643.852 373.406 643.895 373.532C643.937 373.659 644.004 373.777 644.092 373.878C644.18 373.978 644.286 374.061 644.406 374.121C644.526 374.181 644.656 374.216 644.789 374.225C644.814 374.227 644.838 374.228 644.862 374.228Z" fill="white"/>
<path d="M656.978 387.285H823.989C824.259 387.285 824.518 387.177 824.709 386.986C824.9 386.796 825.007 386.536 825.007 386.266C825.007 385.996 824.9 385.737 824.709 385.546C824.518 385.355 824.259 385.248 823.989 385.248H656.978C656.708 385.248 656.449 385.355 656.258 385.546C656.067 385.737 655.96 385.996 655.96 386.266C655.96 386.536 656.067 386.796 656.258 386.986C656.449 387.177 656.708 387.285 656.978 387.285V387.285Z" fill="white"/>
<path d="M783.254 402.051H839.264C839.533 402.051 839.792 401.943 839.982 401.752C840.172 401.561 840.279 401.303 840.279 401.033C840.279 400.763 840.172 400.505 839.982 400.314C839.792 400.123 839.533 400.015 839.264 400.015H783.254C783.12 400.015 782.988 400.041 782.865 400.092C782.741 400.143 782.629 400.218 782.534 400.313C782.44 400.407 782.365 400.52 782.313 400.643C782.262 400.767 782.236 400.899 782.236 401.033C782.236 401.167 782.262 401.299 782.313 401.423C782.365 401.546 782.44 401.659 782.534 401.753C782.629 401.848 782.741 401.923 782.865 401.974C782.988 402.025 783.12 402.051 783.254 402.051V402.051Z" fill="white"/>
<path d="M523.847 651.018H513.038V650.881C513.039 649.766 513.483 648.696 514.272 647.907C515.06 647.119 516.13 646.675 517.245 646.674H523.847V651.018Z" fill="#2F2E41"/>
<path d="M523.863 645.1L523.806 645.1C522.175 645.095 520.546 645.001 518.925 644.819C518.307 644.758 517.637 644.692 516.83 644.626L516.802 644.62C516.252 644.457 516.236 639.291 516.47 621.61C516.589 612.553 516.725 602.289 516.564 595.752L516.562 595.688L516.611 595.645C519.526 593.089 523.005 591.26 526.763 590.305C530.521 589.351 534.452 589.3 538.234 590.156L538.293 590.168L538.324 590.22C541.618 595.794 546.592 603.824 551.403 611.589C562.446 629.414 565.604 634.657 565.258 635.052L565.216 635.085C564.462 635.462 563.896 635.752 563.415 635.999C561.509 636.985 559.552 637.868 557.551 638.643L557.463 638.68L557.398 638.609C546.193 626.331 536.869 612.616 531.102 599.937C530.428 604.266 529.61 609.918 528.745 615.89C526.26 633.062 524.58 644.37 523.904 645.059L523.863 645.1Z" fill="#2F2E41"/>
<path d="M526.882 597.073C533.563 597.043 540.201 598.154 546.508 600.359C546.728 589.77 543.178 579.448 536.493 571.233L536.444 571.174L536.469 571.101C538.229 566.015 540.048 560.759 541.674 555.528L541.65 555.44C540.509 551.387 538.062 547.291 534.168 542.919C533.746 542.481 533.173 542.22 532.566 542.19C531.958 542.159 531.362 542.36 530.897 542.753C527.486 545.873 524.829 549.728 523.127 554.026C521.425 558.324 520.724 562.953 521.076 567.563L521.078 567.589L521.071 567.615C518.022 577.944 516.915 583.25 515.939 587.931C515.226 591.346 514.609 594.303 513.371 598.527C517.81 597.561 522.339 597.074 526.882 597.073V597.073Z" fill="#CBCBCB"/>
<path opacity="0.1" d="M536.719 564.419L526.8 586.013L521.133 580.277L536.719 564.419Z" fill="black"/>
<path d="M532.478 540.816C536.375 540.816 539.535 537.657 539.535 533.76C539.535 529.862 536.375 526.703 532.478 526.703C528.58 526.703 525.421 529.862 525.421 533.76C525.421 537.657 528.58 540.816 532.478 540.816Z" fill="#9F616A"/>
<path d="M523.922 529.773H535.127V524.889C532.668 523.911 530.261 523.08 528.806 524.889C527.511 524.889 526.269 525.403 525.353 526.319C524.437 527.235 523.922 528.478 523.922 529.773V529.773Z" fill="#2F2E41"/>
<path d="M535.748 524.027C542.446 524.027 544.321 532.424 544.321 537.161C544.321 539.802 543.127 540.747 541.249 541.067L540.586 537.531L539.033 541.219C538.506 541.222 537.952 541.212 537.378 541.201L536.851 540.117L535.677 541.182C530.975 541.189 527.174 541.874 527.174 537.161C527.174 532.424 528.818 524.027 535.748 524.027Z" fill="#2F2E41"/>
<path d="M738.091 198C738.091 384 543.091 473 543.091 473C543.091 473 346.091 384 342.091 198C339.74 88.6729 430.739 0 540.091 0C649.443 0 738.091 88.6477 738.091 198Z" fill="#6C63FF"/>
<path d="M562.696 646.307H558.586L556.63 630.453H562.697L562.696 646.307Z" fill="#FFB7B7"/>
<path d="M609.091 484H477.091L461.091 420H625.091L609.091 484Z" fill="#3F3D56"/>
<path d="M604.591 593.451H481.591V657.549H604.591V593.451Z" fill="#A26868"/>
<path d="M605.591 658.549H480.591V592.451H605.591V658.549ZM482.591 656.549H603.591V594.451H482.591V656.549Z" fill="#3F3D56"/>
<path d="M568.304 491.547H517.878L512.091 482.453H574.091L568.304 491.547Z" fill="#3F3D56"/>
<path d="M480.091 484H478.091V582H480.091V484Z" fill="#3F3D56"/>
<path d="M608.091 484H606.091V582H608.091V484Z" fill="#3F3D56"/>
<path d="M563.138 418.916L561.917 417.332C619.695 372.776 688.57 296.444 688.57 185.829C688.616 147.087 677.222 109.194 655.818 76.9022C634.413 44.6103 603.951 19.3571 568.25 4.30956L569.03 2.46777C605.092 17.668 635.864 43.1774 657.485 75.797C679.107 108.416 690.616 146.694 690.57 185.829C690.57 297.256 621.272 374.085 563.138 418.916Z" fill="#3F3D56"/>
<path d="M499.138 418.916L497.917 417.332C555.695 372.776 624.57 296.444 624.57 185.829C624.585 147.347 613.328 109.705 592.189 77.5498C571.05 45.3949 540.955 20.1367 505.621 4.89502L506.414 3.05908C542.106 18.4554 572.507 43.9699 593.861 76.4511C615.214 108.932 626.586 146.957 626.57 185.829C626.57 297.257 557.272 374.086 499.138 418.916Z" fill="#3F3D56"/>
<path d="M581.044 418.916C522.91 374.086 453.612 297.257 453.612 185.829C453.596 146.957 464.968 108.932 486.322 76.4503C507.676 43.9691 538.077 18.4546 573.77 3.05859L574.563 4.89452C539.229 20.1359 509.133 45.3941 487.993 77.5491C466.854 109.704 455.597 147.347 455.612 185.829C455.612 296.444 524.487 372.776 582.265 417.332L581.044 418.916Z" fill="#3F3D56"/>
<path d="M517.044 418.916C458.91 374.086 389.612 297.257 389.612 185.829C389.547 146.54 401.137 108.114 422.916 75.4141C444.696 42.7141 475.685 17.2092 511.964 2.12646L512.735 3.97216C476.821 18.9032 446.142 44.1519 424.582 76.5234C403.021 108.895 391.547 146.934 391.612 185.829C391.612 296.445 460.487 372.776 518.265 417.332L517.044 418.916Z" fill="#3F3D56"/>
<path d="M541.091 0H539.091V420H541.091V0Z" fill="#3F3D56"/>
<path d="M517.558 578.918L480.884 615.592L482.298 617.006L518.972 580.332L517.558 578.918Z" fill="#3F3D56"/>
<path d="M535.386 578.308L480.87 635.645L482.319 637.023L536.836 579.686L535.386 578.308Z" fill="#3F3D56"/>
<path d="M616.091 579H466.091V597H616.091V579Z" fill="white"/>
<path d="M617.091 598H465.091V578H617.091V598ZM467.091 596H615.091V580H467.091V596Z" fill="#A26868"/>
<path d="M514.605 587.372C515.006 587.344 515.396 587.228 515.747 587.033C516.099 586.838 516.404 586.569 516.64 586.243C516.876 585.918 517.037 585.545 517.114 585.15C517.19 584.756 517.179 584.349 517.081 583.959L525.254 578.604L520.593 576.591L513.546 581.984C512.902 582.192 512.357 582.629 512.013 583.212C511.67 583.795 511.552 584.484 511.683 585.148C511.813 585.812 512.183 586.406 512.721 586.815C513.26 587.225 513.93 587.423 514.605 587.372H514.605Z" fill="#9F616A"/>
<path d="M522.469 583.514L522.366 583.441C520.421 582.01 518.262 580.529 516.173 579.098L516.048 579.012L516.147 578.896C520.604 573.681 525.066 568.234 529.382 562.965L529.373 562.946L529.414 562.925L529.431 562.904L529.44 562.912L529.466 562.899L529.349 562.908L528.019 552.476C527.36 551.391 527.024 550.141 527.049 548.873C527.075 547.604 527.46 546.368 528.162 545.311C528.969 544.17 530.169 543.367 531.531 543.055C532.894 542.744 534.324 542.947 535.546 543.625C536.149 544.03 536.654 544.565 537.022 545.192C537.39 545.818 537.613 546.519 537.674 547.243C537.759 547.888 537.7 548.544 537.499 549.163C537.299 549.783 536.963 550.349 536.515 550.822C536.975 555.884 537.178 560.967 537.123 566.05L537.124 566.098L537.094 566.137C532.493 571.982 527.439 577.796 522.552 583.419L522.469 583.514Z" fill="#CBCBCB"/>
<path d="M439.32 488.228C439.062 488.228 438.814 488.13 438.626 487.954C438.438 487.778 438.323 487.538 438.305 487.281C437.639 478.234 433.582 469.772 426.945 463.588C420.307 457.405 411.58 453.956 402.508 453.931C401.423 453.931 400.282 453.987 399.118 454.096C398.924 454.114 398.728 454.076 398.554 453.986C398.381 453.896 398.237 453.757 398.14 453.588C393.973 446.294 387.75 440.389 380.249 436.61C372.747 432.83 364.298 431.344 355.957 432.336C347.616 433.328 339.751 436.755 333.345 442.188C326.939 447.622 322.275 454.822 319.935 462.889C319.873 463.105 319.741 463.295 319.56 463.428C319.379 463.561 319.158 463.63 318.934 463.624L318.663 463.616C318.522 463.611 318.381 463.606 318.239 463.606C311.359 463.627 304.692 466.001 299.346 470.332C294 474.664 290.296 480.693 288.848 487.42C288.8 487.648 288.674 487.853 288.493 488C288.311 488.148 288.085 488.228 287.851 488.228H219.627C219.493 488.228 219.36 488.202 219.236 488.151C219.112 488.1 219 488.025 218.905 487.931C218.81 487.836 218.735 487.724 218.683 487.6C218.632 487.476 218.605 487.344 218.605 487.21C218.605 487.076 218.632 486.943 218.683 486.819C218.735 486.695 218.81 486.583 218.905 486.488C219 486.394 219.112 486.319 219.236 486.268C219.36 486.217 219.493 486.191 219.627 486.191H287.036C288.733 479.195 292.725 472.968 298.374 468.505C304.023 464.043 311.005 461.601 318.204 461.569C320.767 453.279 325.682 445.911 332.353 440.361C339.024 434.811 347.163 431.318 355.781 430.306C364.399 429.294 373.126 430.806 380.901 434.659C388.676 438.513 395.165 444.541 399.579 452.012C400.581 451.934 401.563 451.895 402.508 451.895C412.095 451.921 421.318 455.566 428.332 462.101C435.346 468.635 439.634 477.578 440.337 487.138C440.346 487.272 440.329 487.406 440.287 487.532C440.245 487.659 440.178 487.777 440.09 487.878C440.002 487.979 439.895 488.061 439.776 488.121C439.656 488.181 439.526 488.216 439.392 488.225C439.368 488.227 439.344 488.228 439.32 488.228Z" fill="white"/>
<path d="M427.204 501.285H260.193C260.059 501.285 259.926 501.259 259.802 501.208C259.678 501.157 259.566 501.082 259.471 500.988C259.376 500.893 259.301 500.781 259.249 500.657C259.198 500.533 259.171 500.4 259.171 500.266C259.171 500.132 259.198 500 259.249 499.876C259.301 499.752 259.376 499.64 259.471 499.545C259.566 499.451 259.678 499.376 259.802 499.325C259.926 499.274 260.059 499.248 260.193 499.248H427.204C427.474 499.248 427.733 499.355 427.924 499.546C428.115 499.737 428.222 499.996 428.222 500.266C428.222 500.537 428.115 500.796 427.924 500.987C427.733 501.177 427.474 501.285 427.204 501.285Z" fill="white"/>
<path d="M300.927 516.051H244.918C244.784 516.052 244.651 516.026 244.527 515.975C244.403 515.924 244.29 515.849 244.195 515.754C244.101 515.66 244.025 515.547 243.974 515.423C243.922 515.3 243.896 515.167 243.896 515.033C243.896 514.899 243.922 514.766 243.974 514.643C244.025 514.519 244.101 514.406 244.195 514.312C244.29 514.217 244.403 514.142 244.527 514.091C244.651 514.04 244.784 514.014 244.918 514.015H300.927C301.061 514.014 301.194 514.04 301.318 514.091C301.442 514.142 301.554 514.217 301.649 514.312C301.744 514.406 301.82 514.519 301.871 514.643C301.922 514.766 301.949 514.899 301.949 515.033C301.949 515.167 301.922 515.3 301.871 515.423C301.82 515.547 301.744 515.66 301.649 515.754C301.554 515.849 301.442 515.924 301.318 515.975C301.194 516.026 301.061 516.052 300.927 516.051V516.051Z" fill="white"/>
</g>
<defs>
<clipPath id="clip0_102_3">
<rect width="865.573" height="658.549" fill="white"/>
</clipPath>
</defs>
</svg>
